<svg width="14" height="11" viewBox="0 0 14 11" fill="none" xmlns="http://www.w3.org/2000/svg">
<path d="M13.7069 1.53483C13.6141 1.44188 13.5039 1.36814 13.3825 1.31783C13.2612 1.26752 13.1312 1.24163 12.9998 1.24163C12.8685 1.24163 12.7385 1.26752 12.6172 1.31783C12.4958 1.36814 12.3856 1.44188 12.2928 1.53483C11.6842 2.14194 10.8596 2.48288 9.99985 2.48288C9.14015 2.48288 8.31554 2.14194 7.70685 1.53483C6.72272 0.553506 5.38963 0.00244141 3.99985 0.00244141C2.61006 0.00244141 1.27698 0.553506 0.292849 1.53483C0.105341 1.72234 0 1.97665 0 2.24183C0 2.507 0.105341 2.76132 0.292849 2.94883C0.480357 3.13634 0.734672 3.24168 0.999849 3.24168C1.26503 3.24168 1.51934 3.13634 1.70685 2.94883C2.08085 2.57483 2.52685 2.32483 2.99985 2.17283V9.99983C2.99985 10.265 3.10521 10.5194 3.29274 10.7069C3.48028 10.8945 3.73463 10.9998 3.99985 10.9998C4.26507 10.9998 4.51942 10.8945 4.70696 10.7069C4.89449 10.5194 4.99985 10.265 4.99985 9.99983V2.17383C5.48658 2.32515 5.92995 2.59091 6.29285 2.94883C7.03115 3.68779 7.9741 4.18836 8.99985 4.38583V9.99983C8.99985 10.265 9.10521 10.5194 9.29274 10.7069C9.48028 10.8945 9.73463 10.9998 9.99985 10.9998C10.2651 10.9998 10.5194 10.8945 10.707 10.7069C10.8945 10.5194 10.9998 10.265 10.9998 9.99983V4.38583C12.0257 4.18877 12.9688 3.68814 13.7069 2.94883C13.7998 2.85604 13.8735 2.74584 13.9238 2.62452C13.9742 2.50321 14 2.37316 14 2.24183C14 2.11049 13.9742 1.98045 13.9238 1.85914C13.8735 1.73782 13.7998 1.62762 13.7069 1.53483Z" fill="url(#paint0_linear_261_9)"/>
<defs>
<linearGradient id="paint0_linear_261_9" x1="7.00002" y1="0.00244141" x2="7.00002" y2="10.9998" gradientUnits="userSpaceOnUse">
<stop stop-color="#33B5C6"/>
<stop offset="1" stop-color="#3A36BF"/>
</linearGradient>
</defs>
</svg>
